<svg width="1450" height="1031" viewBox="0 0 1450 1031" fill="none" xmlns="http://www.w3.org/2000/svg">
<g filter="url(#filter0_f_1_33)">
<rect x="531.115" y="463.561" width="359.551" height="108.62" fill="#CCE4E8" stroke="black"/>
<path d="M867.967 543.227C867.967 547.164 865.214 551.023 859.97 554.62C854.743 558.207 847.146 561.456 837.714 564.194C818.855 569.666 792.774 573.057 763.944 573.057C735.114 573.057 709.033 569.666 690.175 564.194C680.742 561.456 673.145 558.207 667.918 554.62C662.675 551.023 659.921 547.164 659.921 543.227C659.921 539.289 662.675 535.43 667.918 531.833C673.145 528.247 680.742 524.997 690.175 522.26C709.033 516.788 735.114 513.396 763.944 513.396C792.774 513.396 818.855 516.788 837.714 522.26C847.146 524.997 854.743 528.247 859.97 531.833C865.214 535.43 867.967 539.289 867.967 543.227Z" fill="#4853A6" stroke="black"/>
<path d="M499.453 535.198L610.683 504.112L762.114 572.162H458.305L499.453 535.198Z" fill="#89A8C8" stroke="black"/>
<path d="M878.322 459.908L915.869 472.275C916.985 472.643 918.145 472.857 919.319 472.91L955.511 474.572C959.57 474.758 961.767 477.746 961.964 480.961C962.162 484.182 960.345 487.55 956.369 488.458C951.715 489.521 949.107 494.572 951.026 498.957C953.038 503.553 949.407 508.629 944.407 508.209L871.187 502.06C869.377 501.908 867.558 501.908 865.748 502.06L792.527 508.209C787.528 508.629 783.897 503.553 785.909 498.957C787.828 494.572 785.22 489.521 780.565 488.458C776.59 487.55 774.773 484.182 774.971 480.961C775.168 477.746 777.365 474.758 781.424 474.572L817.616 472.91C818.789 472.857 819.95 472.643 821.066 472.275L858.613 459.908C865.013 457.8 871.922 457.8 878.322 459.908Z" fill="#4853A6" stroke="black"/>
<path d="M967.575 537.665C924.281 555.213 848.54 556.69 823.202 540.48C791.716 520.338 862.028 491.838 935.042 495.148C993.801 497.812 1010.87 520.117 967.575 537.665Z" fill="#AAC9D8" stroke="black"/>
</g>
<defs>
<filter id="filter0_f_1_33" x="0" y="0.82666" width="1449.48" height="1029.73" filterUnits="userSpaceOnUse" color-interpolation-filters="sRGB">
<feFlood flood-opacity="0" result="BackgroundImageFix"/>
<feBlend mode="normal" in="SourceGraphic" in2="BackgroundImageFix" result="shape"/>
<feGaussianBlur stdDeviation="228.5" result="effect1_foregroundBlur_1_33"/>
</filter>
</defs>
</svg>
