<svg width="1234" height="1155" viewBox="0 0 1234 1155" fill="none" xmlns="http://www.w3.org/2000/svg">
<g filter="url(#filter0_f_1_128)">
<rect x="501.946" y="457.987" width="216.681" height="236.629" fill="#CCE4E8" stroke="black"/>
<path d="M704.921 631.266C704.921 667.321 676.873 696.515 642.316 696.515C607.759 696.515 579.711 667.321 579.711 631.266C579.711 595.21 607.759 566.017 642.316 566.017C676.873 566.017 704.921 595.21 704.921 631.266Z" fill="#4853A6" stroke="black"/>
<path d="M482.923 613.153L549.718 546.127L641.721 694.574H457.679L482.923 613.153Z" fill="#89A8C8" stroke="black"/>
<path d="M727.68 469.574L729.485 471.708C732.946 475.802 737.752 478.529 743.042 479.401L752.56 480.97C767.148 483.374 772.097 501.852 760.663 511.226C755.847 515.175 753.386 521.313 754.14 527.495L754.277 528.622C755.96 542.422 742.913 553.403 729.603 549.39L714.284 544.771C708.504 543.028 702.339 543.028 696.558 544.771L681.24 549.39C667.93 553.403 654.883 542.422 656.565 528.622L656.703 527.495C657.457 521.313 654.996 515.175 650.179 511.226C638.746 501.852 643.695 483.374 658.283 480.97L667.801 479.401C673.091 478.529 677.897 475.802 681.358 471.708L683.162 469.574C694.807 455.803 716.036 455.803 727.68 469.574Z" fill="#4853A6" stroke="black"/>
<path d="M765.163 619.134C740.423 655.139 688.288 648.657 670.3 607.339C651.566 564.308 684.037 517.053 727.479 524.123C769.193 530.913 789.903 583.129 765.163 619.134Z" fill="#AAC9D8" stroke="black"/>
</g>
<defs>
<filter id="filter0_f_1_128" x="0" y="0.487305" width="1233.3" height="1153.53" filterUnits="userSpaceOnUse" color-interpolation-filters="sRGB">
<feFlood flood-opacity="0" result="BackgroundImageFix"/>
<feBlend mode="normal" in="SourceGraphic" in2="BackgroundImageFix" result="shape"/>
<feGaussianBlur stdDeviation="228.5" result="effect1_foregroundBlur_1_128"/>
</filter>
</defs>
</svg>
